<?xml version="1.0" standalone="no"?>
<!DOCTYPE svg PUBLIC "-//W3C//DTD SVG 20010904//EN"
 "http://www.w3.org/TR/2001/REC-SVG-20010904/DTD/svg10.dtd">
<svg version="1.0" xmlns="http://www.w3.org/2000/svg"
 width="1024.000000pt" height="1024.000000pt" viewBox="0 0 1024.000000 1024.000000"
 preserveAspectRatio="xMidYMid meet">

<g transform="translate(0.000000,1024.000000) scale(0.100000,-0.100000)"
fill="#000000" stroke="none">
<path d="M4885 7843 c-150 -10 -423 -63 -620 -119 -285 -83 -636 -266 -870
-455 -133 -107 -137 -111 -221 -194 -421 -416 -681 -932 -775 -1537 -31 -201
-32 -577 -1 -783 79 -534 288 -987 647 -1405 83 -96 274 -281 375 -362 340
-273 783 -472 1208 -543 408 -69 835 -49 1225 55 302 81 609 224 857 399 81
57 72 50 215 169 141 117 170 146 160 163 -5 8 -4 10 3 5 22 -13 198 189 316
361 289 424 443 903 472 1463 21 405 -91 919 -285 1310 -70 140 -224 378 -301
467 -14 16 -47 54 -73 86 -27 31 -53 55 -58 51 -5 -3 -8 -2 -7 3 11 36 -279
289 -492 428 -355 233 -808 389 -1259 435 -94 9 -395 11 -516 3z m441 -203
c510 -40 966 -207 1349 -494 269 -201 462 -412 623 -678 182 -302 242 -616
178 -928 -37 -180 -85 -286 -221 -480 -75 -107 -99 -161 -125 -275 -37 -168
-126 -306 -216 -335 -20 -7 -62 -10 -94 -8 -49 4 -70 12 -137 56 -106 70 -156
86 -248 80 -92 -6 -166 -40 -225 -104 -65 -71 -90 -137 -101 -262 -12 -143
-17 -168 -44 -221 -78 -153 -263 -198 -385 -94 -27 23 -53 63 -83 126 -52 107
-106 167 -187 206 -47 22 -68 26 -150 26 -83 0 -102 -3 -150 -27 -56 -28 -79
-47 -163 -135 -61 -66 -106 -87 -182 -86 -99 0 -148 33 -220 148 -103 166
-257 255 -440 255 -251 0 -445 -169 -476 -412 -6 -47 -9 -217 -7 -393 3 -297
2 -311 -17 -337 -24 -33 -73 -51 -110 -42 -15 4 -40 24 -56 47 l-29 40 0 614
c0 685 -1 701 -66 810 -47 77 -62 93 -174 178 -229 174 -364 393 -411 665 -16
98 -16 295 0 390 39 220 161 484 318 688 37 47 61 87 57 94 -4 6 -3 8 3 5 6
-4 36 22 66 57 194 220 470 433 735 565 92 46 297 127 393 155 338 97 662 132
995 106z m-2682 -2378 c34 -77 125 -233 171 -292 44 -55 154 -159 225 -211 42
-31 89 -71 104 -90 57 -67 60 -84 64 -346 2 -135 0 -243 -5 -243 -26 0 -230
239 -324 379 -109 163 -217 417 -253 596 -17 85 -36 309 -25 297 4 -4 23 -44
43 -90z m5002 -24 c-44 -639 -548 -1284 -1267 -1622 -553 -260 -1186 -339
-1804 -225 -137 25 -254 58 -415 116 -130 47 -319 136 -332 156 -15 24 -9 300
8 358 22 76 100 151 180 175 71 20 164 15 220 -14 47 -24 114 -94 143 -149 38
-74 108 -140 188 -180 67 -33 85 -38 169 -41 78 -4 106 -1 165 18 80 26 169
87 220 150 58 72 124 95 193 66 47 -20 72 -50 118 -144 82 -168 225 -262 398
-262 129 0 246 54 340 157 88 96 115 168 130 351 15 168 48 220 148 229 43 4
54 1 126 -47 118 -77 143 -85 271 -85 105 0 113 1 175 34 137 71 246 226 290
411 38 160 43 172 104 254 113 153 192 290 212 371 3 14 11 25 16 25 7 0 8
-35 4 -102z m-4888 -957 c71 -105 189 -241 328 -376 l124 -120 0 -153 c0 -86
-4 -152 -9 -150 -13 5 -158 185 -203 252 -60 90 -156 259 -190 334 -68 151
-125 313 -102 290 3 -3 27 -38 52 -77z m4748 -55 c-172 -443 -418 -771 -836
-1110 -93 -75 -394 -249 -537 -310 -224 -95 -496 -162 -757 -187 -158 -15
-512 -7 -648 15 -390 62 -728 193 -1042 405 l-29 19 42 28 c23 15 58 50 78 77
36 49 37 54 41 146 2 53 5 102 7 109 3 9 21 4 64 -18 369 -186 920 -289 1393
-261 453 27 842 129 1243 326 370 182 689 440 912 739 41 54 81 112 90 130 34
65 22 4 -21 -108z"/>
<path d="M4905 6745 c-44 -8 -111 -24 -150 -36 -94 -28 -238 -96 -230 -109 3
-5 0 -7 -8 -5 -16 7 -128 -77 -180 -134 -109 -121 -159 -250 -158 -408 2 -479
573 -805 1193 -682 226 45 394 133 530 278 123 130 171 248 171 416 0 133 -33
232 -113 340 -118 159 -316 276 -560 330 -106 24 -389 29 -495 10z m495 -219
c142 -40 249 -98 340 -183 43 -40 81 -69 85 -65 5 4 5 2 2 -4 -4 -7 5 -38 21
-70 23 -50 27 -72 27 -144 0 -76 -3 -92 -33 -150 -17 -36 -41 -76 -52 -89
l-20 -23 -34 30 c-48 42 -146 95 -236 127 -321 115 -731 66 -968 -115 -63 -48
-69 -46 -112 40 -139 276 62 560 463 656 91 21 120 23 262 20 135 -3 175 -8
255 -30z m-180 -716 c116 -13 244 -50 328 -97 51 -28 61 -37 52 -48 -19 -22
-164 -74 -269 -97 -128 -27 -354 -21 -475 12 -83 22 -199 71 -209 87 -8 13
105 77 179 102 69 23 175 42 279 49 11 1 63 -3 115 -8z"/>
</g>
</svg>
