<svg xmlns="http://www.w3.org/2000/svg" width="32" height="32" fill="none" viewBox="0 0 32 32" id="cookie">
  <path fill="#DDB78F" d="M2 16C2 25.29 8.27 30 16 30C23.73 30 30 25.26 30 16C30 6.57 23.73 2 16 2C8.27 2 2 6.43 2 16Z"></path>
  <path fill="url(#paint0_radial_18_31720)" d="M2 16C2 25.29 8.27 30 16 30C23.73 30 30 25.26 30 16C30 6.57 23.73 2 16 2C8.27 2 2 6.43 2 16Z"></path>
  <path fill="url(#paint1_radial_18_31720)" d="M2 16C2 25.29 8.27 30 16 30C23.73 30 30 25.26 30 16C30 6.57 23.73 2 16 2C8.27 2 2 6.43 2 16Z"></path>
  <path fill="url(#paint2_radial_18_31720)" d="M2 16C2 25.29 8.27 30 16 30C23.73 30 30 25.26 30 16C30 6.57 23.73 2 16 2C8.27 2 2 6.43 2 16Z"></path>
  <path fill="#6F434A" d="M26.92 14.61L26.96 13.99C27 13.42 26.52 12.94 25.95 12.98L25.34 13.02C25.1 13.03 24.85 13.11 24.63 13.24C24.01 13.63 23.76 14.42 24.04 15.09C24.38 15.89 25.32 16.23 26.09 15.85C26.59 15.62 26.88 15.13 26.92 14.61Z"></path>
  <g filter="url(#filter0_f_18_31720)">
    <path fill="url(#paint3_radial_18_31720)" d="M26.7344 13.875C26.7688 13.3847 26.4531 13.25 26.0156 13.25C25.5781 13.25 25.1653 13.4633 24.8125 13.6718C24.2792 14.0073 23.9955 14.43 24.2364 15.0063C24.5288 15.6944 25.0877 15.7019 25.75 15.375C26.3626 15.0932 26.5801 14.4399 26.7344 13.875Z"></path>
  </g>
  <path fill="#6F434A" d="M19.89 8.32001L20.51 8.36001C21.08 8.40001 21.56 7.92001 21.52 7.35001L21.48 6.74001C21.47 6.50001 21.39 6.25001 21.26 6.03001C20.87 5.41001 20.08 5.16001 19.41 5.44001C18.61 5.78001 18.27 6.72001 18.65 7.49001C18.88 7.99001 19.37 8.28001 19.89 8.32001Z"></path>
  <g filter="url(#filter1_f_18_31720)">
    <path fill="url(#paint4_radial_18_31720)" d="M20.0001 7.68832L20.4808 7.71707C20.9227 7.74582 21.2948 7.40083 21.2638 6.99115L21.2328 6.55273C21.2251 6.38023 21.163 6.20055 21.0622 6.04243C20.7599 5.59681 20.1474 5.41713 19.6279 5.61837C19.0077 5.86274 18.7441 6.53835 19.0387 7.09178C19.217 7.45114 19.5969 7.65957 20.0001 7.68832Z"></path>
  </g>
  <path fill="#6F434A" d="M10.67 23.75L10.62 24.52C10.57 25.23 11.16 25.82 11.87 25.77L12.63 25.72C12.93 25.7 13.23 25.61 13.51 25.44C14.28 24.96 14.59 23.98 14.24 23.14C13.82 22.14 12.65 21.72 11.7 22.2C11.08 22.51 10.71 23.11 10.67 23.75Z"></path>
  <g filter="url(#filter2_f_18_31720)">
    <path fill="url(#paint5_radial_18_31720)" d="M10.9819 23.765L10.9402 24.4071C10.8985 24.9991 11.3905 25.4911 11.9825 25.4494L12.6162 25.4077C12.8664 25.3911 13.1165 25.316 13.35 25.1743C13.9921 24.774 14.2506 23.9568 13.9587 23.2564C13.6085 22.4225 12.6329 22.0723 11.8407 22.4726C11.3238 22.7311 11.0152 23.2314 10.9819 23.765Z"></path>
  </g>
  <path fill="#6F434A" d="M20.4 15.19L20.43 14.73C20.53 13.22 19.28 11.97 17.76 12.06L17.31 12.09C16.86 12.11 16.41 12.24 15.99 12.49C14.75 13.22 14.22 14.78 14.77 16.11C15.42 17.7 17.27 18.37 18.78 17.62C19.76 17.15 20.34 16.2 20.4 15.19Z"></path>
  <g filter="url(#filter3_f_18_31720)">
    <path fill="url(#paint6_radial_18_31720)" d="M20.024 14.9836L20.0483 14.6099C20.1296 13.3833 19.1142 12.368 17.8795 12.4411L17.514 12.4655C17.1485 12.4817 16.7829 12.5873 16.4418 12.7904C15.4345 13.3833 15.004 14.6505 15.4508 15.7309C15.9788 17.0224 17.4815 17.5666 18.7081 16.9574C19.5041 16.5756 19.9752 15.804 20.024 14.9836Z"></path>
  </g>
  <path fill="url(#paint7_radial_18_31720)" d="M7.68 9.41994L7.65 8.99994C7.57 7.62994 8.7 6.48994 10.07 6.57994L10.48 6.60994C10.89 6.62994 11.3 6.74994 11.68 6.96994C12.81 7.62994 13.28 9.04994 12.79 10.2599C12.2 11.6999 10.52 12.3099 9.15 11.6299C8.27 11.1899 7.74 10.3299 7.68 9.41994Z"></path>
  <g filter="url(#filter4_f_18_31720)">
    <path fill="url(#paint8_radial_18_31720)" d="M8.15663 9.38764L8.13206 9.04363C8.06654 7.92149 8.99209 6.98774 10.1142 7.06146L10.45 7.08603C10.7859 7.10241 11.2825 7.0698 11.5938 7.25C12.5193 7.79059 12.8076 8.94642 12.4062 9.9375C11.923 11.117 10.4828 11.7548 9.36068 11.1978C8.63989 10.8374 8.20578 10.133 8.15663 9.38764Z"></path>
  </g>
  <path fill="#6F434A" d="M24.26 22.82L24.28 23.18C24.36 24.35 23.38 25.33 22.21 25.25L21.86 25.23C21.51 25.21 21.16 25.11 20.83 24.92C19.86 24.35 19.46 23.14 19.88 22.11C20.39 20.88 21.82 20.35 23 20.94C23.76 21.3 24.21 22.03 24.26 22.82Z"></path>
  <g filter="url(#filter5_f_18_31720)">
    <path fill="url(#paint9_radial_18_31720)" d="M24.0262 22.7197L24.043 23.0224C24.1103 24.0064 23.2861 24.8306 22.3021 24.7633L22.0078 24.7465C21.7134 24.7297 21.4191 24.6456 21.1415 24.4858C20.3258 24.0064 19.9893 22.9888 20.3426 22.1226C20.7715 21.0881 21.9741 20.6424 22.9665 21.1386C23.6057 21.4413 23.9842 22.0553 24.0262 22.7197Z"></path>
  </g>
  <path fill="#6F434A" d="M5.90999 17.54L5.86999 16.92C5.82999 16.35 6.30999 15.87 6.87999 15.91L7.48999 15.95C7.72999 15.96 7.97999 16.04 8.19999 16.17C8.81999 16.56 9.06999 17.35 8.78999 18.02C8.44999 18.82 7.50999 19.16 6.73999 18.78C6.23999 18.55 5.93999 18.06 5.90999 17.54Z"></path>
  <g filter="url(#filter6_f_18_31720)">
    <path fill="url(#paint10_radial_18_31720)" d="M6.21167 17.5158L6.17985 17.0226C6.14803 16.5691 6.52991 16.1872 6.9834 16.219L7.46872 16.2508C7.65966 16.2588 7.85856 16.3224 8.03359 16.4259C8.52686 16.7362 8.72576 17.3647 8.50299 17.8977C8.23249 18.5342 7.48463 18.8047 6.87202 18.5024C6.47422 18.3194 6.23554 17.9296 6.21167 17.5158Z"></path>
  </g>
  <defs>
    <radialGradient id="paint0_radial_18_31720" cx="0" cy="0" r="1" gradientTransform="rotate(119.554 9.443 10.733)scale(20.9077)" gradientUnits="userSpaceOnUse">
      <stop stop-color="#FFDAAE"></stop>
      <stop offset="1" stop-color="#D59077" stop-opacity="0"></stop>
    </radialGradient>
    <radialGradient id="paint1_radial_18_31720" cx="0" cy="0" r="1" gradientTransform="rotate(83.29 -.309 17.77)scale(17.1172 16.2696)" gradientUnits="userSpaceOnUse">
      <stop offset=".772" stop-color="#BF9E7A" stop-opacity="0"></stop>
      <stop offset="1" stop-color="#C4A47E"></stop>
    </radialGradient>
    <radialGradient id="paint2_radial_18_31720" cx="0" cy="0" r="1" gradientTransform="rotate(92.681 6.586 12.495)scale(37.4159)" gradientUnits="userSpaceOnUse">
      <stop offset=".325" stop-color="#E9AB8B" stop-opacity="0"></stop>
      <stop offset=".505" stop-color="#DE9A80"></stop>
      <stop offset=".656" stop-color="#D07067"></stop>
    </radialGradient>
    <radialGradient id="paint3_radial_18_31720" cx="0" cy="0" r="1" gradientTransform="rotate(140.104 10.882 11.509)scale(2.75277 2.61177)" gradientUnits="userSpaceOnUse">
      <stop offset=".175" stop-color="#886562"></stop>
      <stop offset="1" stop-color="#8E6C67" stop-opacity="0"></stop>
    </radialGradient>
    <radialGradient id="paint4_radial_18_31720" cx="0" cy="0" r="1" gradientTransform="matrix(-2.50939 -1.45447 1.39989 -2.41522 21.266 7.41)" gradientUnits="userSpaceOnUse">
      <stop offset=".175" stop-color="#886562"></stop>
      <stop offset="1" stop-color="#8E6C67" stop-opacity="0"></stop>
    </radialGradient>
    <radialGradient id="paint5_radial_18_31720" cx="0" cy="0" r="1" gradientTransform="matrix(2.94893 -2.5649 2.62536 3.01844 11.13 25.258)" gradientUnits="userSpaceOnUse">
      <stop offset=".47" stop-color="#896764" stop-opacity="0"></stop>
      <stop offset=".935" stop-color="#896763"></stop>
    </radialGradient>
    <radialGradient id="paint6_radial_18_31720" cx="0" cy="0" r="1" gradientTransform="matrix(5.16268 -2.0625 2.11182 5.28612 15.275 16)" gradientUnits="userSpaceOnUse">
      <stop offset=".388" stop-color="#896764" stop-opacity="0"></stop>
      <stop offset=".935" stop-color="#896763"></stop>
    </radialGradient>
    <radialGradient id="paint7_radial_18_31720" cx="0" cy="0" r="1" gradientTransform="rotate(123.403 3.173 7.432)scale(3.63294 3.63565)" gradientUnits="userSpaceOnUse">
      <stop stop-color="#7D5755"></stop>
      <stop offset="1" stop-color="#60383B"></stop>
    </radialGradient>
    <radialGradient id="paint8_radial_18_31720" cx="0" cy="0" r="1" gradientTransform="matrix(4.80872 -.33296 .3332 4.8123 8.129 9.563)" gradientUnits="userSpaceOnUse">
      <stop offset=".597" stop-color="#896764" stop-opacity="0"></stop>
      <stop offset=".935" stop-color="#896763"></stop>
    </radialGradient>
    <radialGradient id="paint9_radial_18_31720" cx="0" cy="0" r="1" gradientTransform="matrix(3.60937 -3.125 3.1966 3.69208 20.438 24.531)" gradientUnits="userSpaceOnUse">
      <stop offset=".47" stop-color="#896764" stop-opacity="0"></stop>
      <stop offset=".935" stop-color="#896763"></stop>
    </radialGradient>
    <radialGradient id="paint10_radial_18_31720" cx="0" cy="0" r="1" gradientTransform="matrix(2.26846 -1.96472 2.00984 2.32055 6.325 18.478)" gradientUnits="userSpaceOnUse">
      <stop offset=".47" stop-color="#896764" stop-opacity="0"></stop>
      <stop offset=".935" stop-color="#896763"></stop>
    </radialGradient>
    <filter id="filter0_f_18_31720" width="3.587" height="3.335" x="23.65" y="12.75" color-interpolation-filters="sRGB" filterUnits="userSpaceOnUse">
      <feFlood flood-opacity="0" result="BackgroundImageFix"></feFlood>
      <feBlend in="SourceGraphic" in2="BackgroundImageFix" result="shape"></feBlend>
      <feGaussianBlur result="effect1_foregroundBlur_18_31720" stdDeviation=".25"></feGaussianBlur>
    </filter>
    <filter id="filter1_f_18_31720" width="3.348" height="3.182" x="18.418" y="5.036" color-interpolation-filters="sRGB" filterUnits="userSpaceOnUse">
      <feFlood flood-opacity="0" result="BackgroundImageFix"></feFlood>
      <feBlend in="SourceGraphic" in2="BackgroundImageFix" result="shape"></feBlend>
      <feGaussianBlur result="effect1_foregroundBlur_18_31720" stdDeviation=".25"></feGaussianBlur>
    </filter>
    <filter id="filter2_f_18_31720" width="4.14" height="4.145" x="10.438" y="21.807" color-interpolation-filters="sRGB" filterUnits="userSpaceOnUse">
      <feFlood flood-opacity="0" result="BackgroundImageFix"></feFlood>
      <feBlend in="SourceGraphic" in2="BackgroundImageFix" result="shape"></feBlend>
      <feGaussianBlur result="effect1_foregroundBlur_18_31720" stdDeviation=".25"></feGaussianBlur>
    </filter>
    <filter id="filter3_f_18_31720" width="5.778" height="5.769" x="14.775" y="11.937" color-interpolation-filters="sRGB" filterUnits="userSpaceOnUse">
      <feFlood flood-opacity="0" result="BackgroundImageFix"></feFlood>
      <feBlend in="SourceGraphic" in2="BackgroundImageFix" result="shape"></feBlend>
      <feGaussianBlur result="effect1_foregroundBlur_18_31720" stdDeviation=".25"></feGaussianBlur>
    </filter>
    <filter id="filter4_f_18_31720" width="5.454" height="5.344" x="7.629" y="6.557" color-interpolation-filters="sRGB" filterUnits="userSpaceOnUse">
      <feFlood flood-opacity="0" result="BackgroundImageFix"></feFlood>
      <feBlend in="SourceGraphic" in2="BackgroundImageFix" result="shape"></feBlend>
      <feGaussianBlur result="effect1_foregroundBlur_18_31720" stdDeviation=".25"></feGaussianBlur>
    </filter>
    <filter id="filter5_f_18_31720" width="4.844" height="4.832" x="19.703" y="20.436" color-interpolation-filters="sRGB" filterUnits="userSpaceOnUse">
      <feFlood flood-opacity="0" result="BackgroundImageFix"></feFlood>
      <feBlend in="SourceGraphic" in2="BackgroundImageFix" result="shape"></feBlend>
      <feGaussianBlur result="effect1_foregroundBlur_18_31720" stdDeviation=".25"></feGaussianBlur>
    </filter>
    <filter id="filter6_f_18_31720" width="3.416" height="3.409" x="5.678" y="15.717" color-interpolation-filters="sRGB" filterUnits="userSpaceOnUse">
      <feFlood flood-opacity="0" result="BackgroundImageFix"></feFlood>
      <feBlend in="SourceGraphic" in2="BackgroundImageFix" result="shape"></feBlend>
      <feGaussianBlur result="effect1_foregroundBlur_18_31720" stdDeviation=".25"></feGaussianBlur>
    </filter>
  </defs>
</svg>
