<svg xmlns="http://www.w3.org/2000/svg" width="32" height="32" fill="none" viewBox="0 0 32 32" id="heart">
  <path fill="url(#paint0_radial_7305_6094)" d="M15.217 29.2015C15.752 29.5 16.3957 29.4835 16.9275 29.1795C20.5106 27.1318 26.7369 22.4179 29.1822 16.2948C32.7713 8.3224 24.3441 1.95834 18.5197 6.5356C17.9122 7.01307 17.1483 7.55954 16.6226 8.07719C16.3849 8.31124 15.966 8.33511 15.7193 8.11061C15.0281 7.48177 13.9479 6.67511 13.2542 6.20577C8.28887 2.84639 -0.74574 7.27463 3.1081 16.7255C4.51986 20.9677 11.2474 26.9862 15.217 29.2015Z"></path>
  <path fill="url(#paint1_radial_7305_6094)" d="M15.217 29.2015C15.752 29.5 16.3957 29.4835 16.9275 29.1795C20.5106 27.1318 26.7369 22.4179 29.1822 16.2948C32.7713 8.3224 24.3441 1.95834 18.5197 6.5356C17.9122 7.01307 17.1483 7.55954 16.6226 8.07719C16.3849 8.31124 15.966 8.33511 15.7193 8.11061C15.0281 7.48177 13.9479 6.67511 13.2542 6.20577C8.28887 2.84639 -0.74574 7.27463 3.1081 16.7255C4.51986 20.9677 11.2474 26.9862 15.217 29.2015Z"></path>
  <path fill="url(#paint2_radial_7305_6094)" d="M15.217 29.2015C15.752 29.5 16.3957 29.4835 16.9275 29.1795C20.5106 27.1318 26.7369 22.4179 29.1822 16.2948C32.7713 8.3224 24.3441 1.95834 18.5197 6.5356C17.9122 7.01307 17.1483 7.55954 16.6226 8.07719C16.3849 8.31124 15.966 8.33511 15.7193 8.11061C15.0281 7.48177 13.9479 6.67511 13.2542 6.20577C8.28887 2.84639 -0.74574 7.27463 3.1081 16.7255C4.51986 20.9677 11.2474 26.9862 15.217 29.2015Z"></path>
  <path fill="url(#paint3_radial_7305_6094)" d="M15.217 29.2015C15.752 29.5 16.3957 29.4835 16.9275 29.1795C20.5106 27.1318 26.7369 22.4179 29.1822 16.2948C32.7713 8.3224 24.3441 1.95834 18.5197 6.5356C17.9122 7.01307 17.1483 7.55954 16.6226 8.07719C16.3849 8.31124 15.966 8.33511 15.7193 8.11061C15.0281 7.48177 13.9479 6.67511 13.2542 6.20577C8.28887 2.84639 -0.74574 7.27463 3.1081 16.7255C4.51986 20.9677 11.2474 26.9862 15.217 29.2015Z"></path>
  <path fill="url(#paint4_linear_7305_6094)" d="M15.217 29.2015C15.752 29.5 16.3957 29.4835 16.9275 29.1795C20.5106 27.1318 26.7369 22.4179 29.1822 16.2948C32.7713 8.3224 24.3441 1.95834 18.5197 6.5356C17.9122 7.01307 17.1483 7.55954 16.6226 8.07719C16.3849 8.31124 15.966 8.33511 15.7193 8.11061C15.0281 7.48177 13.9479 6.67511 13.2542 6.20577C8.28887 2.84639 -0.74574 7.27463 3.1081 16.7255C4.51986 20.9677 11.2474 26.9862 15.217 29.2015Z"></path>
  <path fill="url(#paint5_linear_7305_6094)" d="M15.217 29.2015C15.752 29.5 16.3957 29.4835 16.9275 29.1795C20.5106 27.1318 26.7369 22.4179 29.1822 16.2948C32.7713 8.3224 24.3441 1.95834 18.5197 6.5356C17.9122 7.01307 17.1483 7.55954 16.6226 8.07719C16.3849 8.31124 15.966 8.33511 15.7193 8.11061C15.0281 7.48177 13.9479 6.67511 13.2542 6.20577C8.28887 2.84639 -0.74574 7.27463 3.1081 16.7255C4.51986 20.9677 11.2474 26.9862 15.217 29.2015Z"></path>
  <path fill="url(#paint6_radial_7305_6094)" fill-opacity=".6" d="M15.217 29.2015C15.752 29.5 16.3957 29.4835 16.9275 29.1795C20.5106 27.1318 26.7369 22.4179 29.1822 16.2948C32.7713 8.3224 24.3441 1.95834 18.5197 6.5356C17.9122 7.01307 17.1483 7.55954 16.6226 8.07719C16.3849 8.31124 15.966 8.33511 15.7193 8.11061C15.0281 7.48177 13.9479 6.67511 13.2542 6.20577C8.28887 2.84639 -0.74574 7.27463 3.1081 16.7255C4.51986 20.9677 11.2474 26.9862 15.217 29.2015Z"></path>
  <g filter="url(#filter0_f_7305_6094)">
    <path fill="#FA1C56" d="M15.9084 10.5407V17.3634C15.9084 18.2682 17.004 18.6971 17.5681 17.9896C19.3132 15.8006 20.7207 13.1388 19.1499 10.9645C18.5477 10.1309 17.3939 9.59683 16.4512 9.76674C16.0985 9.8303 15.9084 10.1823 15.9084 10.5407Z"></path>
  </g>
  <g filter="url(#filter1_f_7305_6094)">
    <ellipse cx="24.663" cy="11.377" fill="url(#paint7_radial_7305_6094)" rx="4.462" ry="3.7" transform="rotate(-44.19 24.663 11.377)"></ellipse>
  </g>
  <g filter="url(#filter2_f_7305_6094)">
    <ellipse cx="23.46" cy="6.067" fill="#FF7383" rx="1.693" ry=".356" transform="rotate(7.165 23.46 6.067)"></ellipse>
  </g>
  <g filter="url(#filter3_f_7305_6094)">
    <ellipse cx="9.389" cy="6.053" fill="#FF93BA" fill-opacity=".5" rx="1.519" ry=".249" transform="rotate(-.697 9.389 6.053)"></ellipse>
  </g>
  <g filter="url(#filter4_f_7305_6094)">
    <path fill="url(#paint8_radial_7305_6094)" d="M14.8451 9.96187L15.1577 20.2119C8.28268 13.5244 6.96067 8.82813 9.59513 7.77437C12.0952 6.77437 14.0952 8.39937 14.8451 9.96187Z"></path>
  </g>
  <g filter="url(#filter5_f_7305_6094)">
    <path fill="#FF7383" d="M14.3452 9.36191C13.5052 9.24191 13.2452 8.54525 13.2202 8.21191C13.7002 8.71191 14.1702 8.75358 14.3452 8.71191V9.36191Z"></path>
  </g>
  <defs>
    <radialGradient id="paint0_radial_7305_6094" cx="0" cy="0" r="1" gradientTransform="matrix(0 22.9845 -24.4021 0 15.883 5.634)" gradientUnits="userSpaceOnUse">
      <stop stop-color="#FC0000"></stop>
      <stop offset=".528" stop-color="#FF3B79"></stop>
      <stop offset="1" stop-color="#F724B3"></stop>
    </radialGradient>
    <radialGradient id="paint1_radial_7305_6094" cx="0" cy="0" r="1" gradientTransform="matrix(-14.87866 15.19253 -28.45705 -27.86914 23.025 11.363)" gradientUnits="userSpaceOnUse">
      <stop offset=".798" stop-color="#C82092" stop-opacity="0"></stop>
      <stop offset=".908" stop-color="#C82092"></stop>
    </radialGradient>
    <radialGradient id="paint2_radial_7305_6094" cx="0" cy="0" r="1" gradientTransform="matrix(-21.1897 -8.27729 11.70114 -29.9547 19.997 17.789)" gradientUnits="userSpaceOnUse">
      <stop offset=".41" stop-color="#B91D43" stop-opacity="0"></stop>
      <stop offset=".834" stop-color="#B91D43"></stop>
    </radialGradient>
    <radialGradient id="paint3_radial_7305_6094" cx="0" cy="0" r="1" gradientTransform="rotate(90 .872 14.688)scale(19.7992)" gradientUnits="userSpaceOnUse">
      <stop offset=".671" stop-color="#FF7AF2" stop-opacity="0"></stop>
      <stop offset=".934" stop-color="#FFBCE6"></stop>
    </radialGradient>
    <radialGradient id="paint6_radial_7305_6094" cx="0" cy="0" r="1" gradientTransform="matrix(-16.59795 4.56623 -4.82236 -17.52896 18.347 12.896)" gradientUnits="userSpaceOnUse">
      <stop offset=".802" stop-color="#FF73A6" stop-opacity="0"></stop>
      <stop offset="1" stop-color="#FF93BA"></stop>
    </radialGradient>
    <radialGradient id="paint7_radial_7305_6094" cx="0" cy="0" r="1" gradientTransform="rotate(172.927 14.212 6.526)scale(7.29137 9.69562)" gradientUnits="userSpaceOnUse">
      <stop stop-color="#FF7383"></stop>
      <stop offset="1" stop-color="#FF7383" stop-opacity="0"></stop>
    </radialGradient>
    <radialGradient id="paint8_radial_7305_6094" cx="0" cy="0" r="1" gradientTransform="matrix(-9.06248 -8.87742 15.75895 -16.08745 16.345 13.84)" gradientUnits="userSpaceOnUse">
      <stop stop-color="#FF6274"></stop>
      <stop offset="1" stop-color="#FF6274" stop-opacity="0"></stop>
    </radialGradient>
    <filter id="filter0_f_7305_6094" width="7.923" height="12.608" x="13.908" y="7.735" color-interpolation-filters="sRGB" filterUnits="userSpaceOnUse">
      <feFlood flood-opacity="0" result="BackgroundImageFix"></feFlood>
      <feBlend in="SourceGraphic" in2="BackgroundImageFix" result="shape"></feBlend>
      <feGaussianBlur result="effect1_foregroundBlur_7305_6094" stdDeviation="1"></feGaussianBlur>
    </filter>
    <filter id="filter1_f_7305_6094" width="11.219" height="11.176" x="19.054" y="5.789" color-interpolation-filters="sRGB" filterUnits="userSpaceOnUse">
      <feFlood flood-opacity="0" result="BackgroundImageFix"></feFlood>
      <feBlend in="SourceGraphic" in2="BackgroundImageFix" result="shape"></feBlend>
      <feGaussianBlur result="effect1_foregroundBlur_7305_6094" stdDeviation=".75"></feGaussianBlur>
    </filter>
    <filter id="filter2_f_7305_6094" width="7.36" height="4.823" x="19.78" y="3.656" color-interpolation-filters="sRGB" filterUnits="userSpaceOnUse">
      <feFlood flood-opacity="0" result="BackgroundImageFix"></feFlood>
      <feBlend in="SourceGraphic" in2="BackgroundImageFix" result="shape"></feBlend>
      <feGaussianBlur result="effect1_foregroundBlur_7305_6094" stdDeviation="1"></feGaussianBlur>
    </filter>
    <filter id="filter3_f_7305_6094" width="6.037" height="3.5" x="6.37" y="4.303" color-interpolation-filters="sRGB" filterUnits="userSpaceOnUse">
      <feFlood flood-opacity="0" result="BackgroundImageFix"></feFlood>
      <feBlend in="SourceGraphic" in2="BackgroundImageFix" result="shape"></feBlend>
      <feGaussianBlur result="effect1_foregroundBlur_7305_6094" stdDeviation=".75"></feGaussianBlur>
    </filter>
    <filter id="filter4_f_7305_6094" width="12.825" height="18.745" x="5.333" y="4.467" color-interpolation-filters="sRGB" filterUnits="userSpaceOnUse">
      <feFlood flood-opacity="0" result="BackgroundImageFix"></feFlood>
      <feBlend in="SourceGraphic" in2="BackgroundImageFix" result="shape"></feBlend>
      <feGaussianBlur result="effect1_foregroundBlur_7305_6094" stdDeviation="1.5"></feGaussianBlur>
    </filter>
    <filter id="filter5_f_7305_6094" width="3.125" height="3.15" x="12.22" y="7.212" color-interpolation-filters="sRGB" filterUnits="userSpaceOnUse">
      <feFlood flood-opacity="0" result="BackgroundImageFix"></feFlood>
      <feBlend in="SourceGraphic" in2="BackgroundImageFix" result="shape"></feBlend>
      <feGaussianBlur result="effect1_foregroundBlur_7305_6094" stdDeviation=".5"></feGaussianBlur>
    </filter>
    <linearGradient id="paint4_linear_7305_6094" x1="17.745" x2="25.758" y1="16.133" y2="25.669" gradientUnits="userSpaceOnUse">
      <stop offset=".694" stop-color="#FF7AF2" stop-opacity="0"></stop>
      <stop offset=".934" stop-color="#FFBCE6"></stop>
    </linearGradient>
    <linearGradient id="paint5_linear_7305_6094" x1="16.752" x2="7.349" y1="16.53" y2="27.125" gradientUnits="userSpaceOnUse">
      <stop offset=".694" stop-color="#FF7AF2" stop-opacity="0"></stop>
      <stop offset=".934" stop-color="#FFBCE6"></stop>
    </linearGradient>
  </defs>
</svg>
